<svg xmlns="http://www.w3.org/2000/svg" width="94.061" height="60.199" viewBox="0 0 94.061 60.199">
  <g id="logotipo" transform="translate(-210.761 -260.972)">
    <g id="Grupo_17" data-name="Grupo 17" transform="translate(210.761 260.972)">
      <g id="Grupo_16" data-name="Grupo 16" transform="translate(0 0)">
        <g id="Grupo_14" data-name="Grupo 14" transform="translate(2.055)">
          <path id="Trazado_7" data-name="Trazado 7" d="M232.342,299.747l-14.985,15.2,9.749,9.889a7.367,7.367,0,0,0,10.476,0l9.751-9.886Z" transform="translate(-217.357 -287.669)" fill="#005f27" fill-rule="evenodd"/>
          <path id="Trazado_8" data-name="Trazado 8" d="M328.608,299.74l-14.991,15.2,9.752,9.894a7.374,7.374,0,0,0,10.487-.007l9.743-9.887Z" transform="translate(-283.633 -287.664)" fill="#005f27" fill-rule="evenodd"/>
          <path id="Trazado_9" data-name="Trazado 9" d="M424.868,299.743l-15,15.2,9.756,9.893a7.383,7.383,0,0,0,5.165,2.188,7.294,7.294,0,0,0,5.316-2.193l9.746-9.888Z" transform="translate(-349.906 -287.667)" fill="#005f27" fill-rule="evenodd"/>
          <path id="Trazado_10" data-name="Trazado 10" d="M376.737,288.243l-14.993-15.191,9.754-9.89a7.361,7.361,0,0,1,10.48,0l9.748,9.886Z" transform="translate(-316.769 -260.972)" fill="#158c30" fill-rule="evenodd"/>
          <path id="Trazado_11" data-name="Trazado 11" d="M280.47,288.245l-14.989-15.191,9.743-9.89a7.381,7.381,0,0,1,10.5,0l9.746,9.886Z" transform="translate(-250.491 -260.974)" fill="#158c30" fill-rule="evenodd"/>
        </g>
        <g id="Grupo_15" data-name="Grupo 15" transform="translate(0 44.286)">
          <path id="Trazado_12" data-name="Trazado 12" d="M374.19,415.319c4.369,0,6.554,3.032,6.554,6.06s-2.171,6.063-6.554,6.063c-4.459,0-6.685-3.071-6.65-6.128.03-3.008,2.25-5.994,6.65-5.994Zm-2.678,6.008a2.672,2.672,0,1,0,5.341.027,2.671,2.671,0,1,0-5.341,0Z" transform="translate(-318.705 -411.528)" fill="#005f27"/>
          <path id="Trazado_13" data-name="Trazado 13" d="M324.656,415.563h3.166l.7,1.425.069-.007a4.249,4.249,0,0,1,3.614-1.642c2.664,0,4.2,1.692,4.2,4.365v7.459h-3.932v-6.019c0-1.356-.218-2.641-1.825-2.641a2.052,2.052,0,0,0-2.068,2.32v6.34h-3.93Z" transform="translate(-289.179 -411.543)" fill="#005f27"/>
          <path id="Trazado_14" data-name="Trazado 14" d="M210.761,418.77l2.768-15.621h4.45l2.88,7.333.16.822.17-.822,2.88-7.333h4.442l2.77,15.621h-4.225l-1.4-9.543-.237.884-3.532,8.659h-1.731l-3.53-8.659-.236-.884-1.4,9.543Z" transform="translate(-210.761 -403.149)" fill="#005f27"/>
          <path id="Trazado_15" data-name="Trazado 15" d="M485.869,427.6l-.729-1.48h-.083a4.63,4.63,0,0,1-3.957,1.721c-2.2,0-3.433-1.542-3.433-3.7,0-2.979,2.734-3.665,5.171-3.757.628-.027,1.255-.021,1.852-.036,0-.955-.336-1.577-1.379-1.577a8,8,0,0,0-3.135.851l-1.127-2.61a10.721,10.721,0,0,1,4.982-1.038c2.58,0,4.56,1.376,4.56,4.151V427.6Zm-1.159-4.2v-.884l-.9.038c-1.281.055-2.16.528-2.16,1.434,0,.757.582,1.054,1.219,1.054A1.682,1.682,0,0,0,484.71,423.4Z" transform="translate(-394.529 -411.977)" fill="#005f27"/>
          <path id="Trazado_16" data-name="Trazado 16" d="M448.317,427.5c-3.693,0-5.71-2.274-5.71-5.958,0-3.785,2.3-6.064,6.013-6.064a8.242,8.242,0,0,1,3.752.881l-1.165,2.961a13.16,13.16,0,0,0-1.32-.506,4.173,4.173,0,0,0-1.267-.194c-2.667,0-2.849,5.686.03,5.686a6.091,6.091,0,0,0,3.331-1.018v3.182A6.415,6.415,0,0,1,448.317,427.5Z" transform="translate(-370.39 -411.64)" fill="#005f27"/>
          <path id="Trazado_17" data-name="Trazado 17" d="M422.078,415.481a6.339,6.339,0,0,1,1.2.124l-.35,3.778a5.7,5.7,0,0,0-1.351-.123,2.527,2.527,0,0,0-1.876.6,2.392,2.392,0,0,0-.584,1.728v5.669h-3.95V415.685H418.1l.619,1.858h.192A3.815,3.815,0,0,1,422.078,415.481Z" transform="translate(-351.497 -411.64)" fill="#005f27"/>
          <path id="Trazado_18" data-name="Trazado 18" d="M292.141,422.045H283.8c.029,1.622.805,2.585,2.448,2.585a2.2,2.2,0,0,0,2-1.08h3.716c-.775,2.71-3,3.892-5.667,3.892-3.638,0-6.509-2.145-6.509-6.024,0-3.964,2.734-6.1,6.483-6.1,3.956,0,5.872,2.972,5.872,6.726Zm-3.687-2.331A2.275,2.275,0,0,0,286.2,417.9a2.171,2.171,0,0,0-2.3,1.809Z" transform="translate(-258.286 -411.528)" fill="#005f27"/>
        </g>
      </g>
    </g>
  </g>
</svg>
